<svg xmlns="http://www.w3.org/2000/svg" width="700" height="706" class="highcharts-root" font-family="&quot;Lucida Grande&quot;, &quot;Lucida Sans Unicode&quot;, Arial, Helvetica, sans-serif" font-size="12"><desc>Created with Highstock 6.0.7</desc><defs><clipPath><path fill="none" d="M0 0h565v553H0z"/></clipPath><clipPath id="a"><path fill="none" d="M0 0h565v553H0z"/></clipPath></defs><rect width="700" height="706" fill="#F2F2F2" class="highcharts-background" rx="0" ry="0"/><path fill="none" d="M137 40h553v565H137z" class="highcharts-plot-background"/><g fill="none" class="highcharts-grid highcharts-xaxis-grid"><path d="M137 97.5h553" class="highcharts-grid-line"/><path d="M137 153.5h553" class="highcharts-grid-line"/><path d="M137 210.5h553" class="highcharts-grid-line"/><path d="M137 266.5h553" class="highcharts-grid-line"/><path d="M137 323.5h553" class="highcharts-grid-line"/><path d="M137 379.5h553" class="highcharts-grid-line"/><path d="M137 436.5h553" class="highcharts-grid-line"/><path d="M137 492.5h553" class="highcharts-grid-line"/><path d="M137 549.5h553" class="highcharts-grid-line"/><path d="M137 605.5h553" class="highcharts-grid-line"/><path d="M137 40.5h553" class="highcharts-grid-line"/></g><g fill="none" stroke="#e6e6e6" class="highcharts-grid highcharts-yaxis-grid"><path d="M136.5 40v565" class="highcharts-grid-line"/><path d="M191.5 40v565" class="highcharts-grid-line"/><path d="M247.5 40v565" class="highcharts-grid-line"/><path d="M302.5 40v565" class="highcharts-grid-line"/><path d="M357.5 40v565" class="highcharts-grid-line"/><path d="M413.5 40v565" class="highcharts-grid-line"/><path d="M468.5 40v565" class="highcharts-grid-line"/><path d="M523.5 40v565" class="highcharts-grid-line"/><path d="M578.5 40v565" class="highcharts-grid-line"/><path d="M634.5 40v565" class="highcharts-grid-line"/><path d="M690.5 40v565" class="highcharts-grid-line"/></g><path fill="none" d="M137 40h553v565H137z" class="highcharts-plot-border"/><g fill="none" stroke="#ccd6eb" class="highcharts-axis highcharts-xaxis"><path d="M137 97.5h-10" class="highcharts-tick"/><path d="M137 153.5h-10" class="highcharts-tick"/><path d="M137 210.5h-10" class="highcharts-tick"/><path d="M137 266.5h-10" class="highcharts-tick"/><path d="M137 323.5h-10" class="highcharts-tick"/><path d="M137 379.5h-10" class="highcharts-tick"/><path d="M137 436.5h-10" class="highcharts-tick"/><path d="M137 492.5h-10" class="highcharts-tick"/><path d="M137 549.5h-10" class="highcharts-tick"/><path d="M137 605.5h-10" class="highcharts-tick"/><path d="M137 39.5h-10" class="highcharts-tick"/><path d="M136.5 40v565" class="highcharts-axis-line"/></g><g class="highcharts-axis highcharts-yaxis"><text x="353.5" y="644" fill="#666" text-anchor="middle" class="highcharts-axis-title" color="#666"><tspan>Higher is Better</tspan></text><path fill="none" d="M137 605h553" class="highcharts-axis-line"/></g><g class="highcharts-series-group"><g fill="#D14648" stroke="#fff" class="highcharts-series highcharts-series-0 highcharts-column-series highcharts-color-0" clip-path="url(#a)" transform="matrix(0 -1 -1 0 690 605)"><path d="M543.5 298.5h10v255h-10z" class="highcharts-point highcharts-color-0"/><path d="M486.5 376.5h10v177h-10z" class="highcharts-point highcharts-color-0"/><path d="M430.5 422.5h10v131h-10z" class="highcharts-point highcharts-color-0"/><path d="M373.5 420.5h10v133h-10z" class="highcharts-point highcharts-color-0"/><path d="M317.5 224.5h10v329h-10z" class="highcharts-point highcharts-color-0"/><path d="M260.5 79.5h10v474h-10z" class="highcharts-point highcharts-color-0"/><path d="M204.5 420.5h10v133h-10z" class="highcharts-point highcharts-color-0"/><path d="M147.5 325.5h10v228h-10z" class="highcharts-point highcharts-color-0"/><path d="M91.5 420.5h10v133h-10z" class="highcharts-point highcharts-color-0"/><path d="M34.5 420.5h10v133h-10z" class="highcharts-point highcharts-color-0"/></g><g fill="#323232" stroke="#fff" class="highcharts-series highcharts-series-1 highcharts-column-series highcharts-color-1" clip-path="url(#a)" transform="matrix(0 -1 -1 0 690 605)"><path d="M531.5 434.5h10v119h-10z" class="highcharts-point highcharts-color-1"/><path d="M475.5 485.5h10v68h-10z" class="highcharts-point highcharts-color-1"/><path d="M418.5 498.5h10v55h-10z" class="highcharts-point highcharts-color-1"/><path d="M362.5 439.5h10v114h-10z" class="highcharts-point highcharts-color-1"/><path d="M305.5 433.5h10v120h-10z" class="highcharts-point highcharts-color-1"/><path d="M249.5 300.5h10v253h-10z" class="highcharts-point highcharts-color-1"/><path d="M192.5 420.5h10v133h-10z" class="highcharts-point highcharts-color-1"/><path d="M136.5 437.5h10v116h-10z" class="highcharts-point highcharts-color-1"/><path d="M79.5 420.5h10v133h-10z" class="highcharts-point highcharts-color-1"/><path d="M23.5 420.5h10v133h-10z" class="highcharts-point highcharts-color-1"/></g><g fill="#9e9e9e" stroke="#fff" class="highcharts-series highcharts-series-2 highcharts-column-series highcharts-color-2" clip-path="url(#a)" transform="matrix(0 -1 -1 0 690 605)"><path d="M520.5 488.5h10v65h-10z" class="highcharts-point highcharts-color-2"/><path d="M463.5 492.5h10v61h-10z" class="highcharts-point highcharts-color-2"/><path d="M350.5 466.5h10v87h-10z" class="highcharts-point highcharts-color-2"/><path d="M294.5 491.5h10v62h-10z" class="highcharts-point highcharts-color-2"/><path d="M237.5 437.5h10v116h-10z" class="highcharts-point highcharts-color-2"/><path d="M181.5 420.5h10v133h-10z" class="highcharts-point highcharts-color-2"/><path d="M124.5 493.5h10v60h-10z" class="highcharts-point highcharts-color-2"/><path d="M68.5 420.5h10v133h-10z" class="highcharts-point highcharts-color-2"/><path d="M11.5 435.5h10v118h-10z" class="highcharts-point highcharts-color-2"/></g></g><g class="highcharts-data-labels highcharts-series-0 highcharts-column-series highcharts-color-0"><g class="highcharts-label highcharts-data-label highcharts-data-label-color-0"><text x="5" y="16" font-size="11" font-weight="bold" color="#000" transform="translate(137 40) translate(255 5)"><tspan x="5" y="16" fill="#fff" stroke="#fff" stroke-width="2" class="highcharts-text-outline" stroke-linejoin="round">115.4</tspan><tspan x="5" y="16">115.4</tspan></text></g><g class="highcharts-label highcharts-data-label highcharts-data-label-color-0"><text x="5" y="16" font-size="11" font-weight="bold" color="#000" transform="translate(137 40) translate(177 62)"><tspan x="5" y="16" fill="#fff" stroke="#fff" stroke-width="2" class="highcharts-text-outline" stroke-linejoin="round">79.84</tspan><tspan x="5" y="16">79.84</tspan></text></g><g class="highcharts-label highcharts-data-label highcharts-data-label-color-0"><text x="5" y="16" font-size="11" font-weight="bold" color="#000" transform="translate(137 40) translate(131 118)"><tspan x="5" y="16" fill="#fff" stroke="#fff" stroke-width="2" class="highcharts-text-outline" stroke-linejoin="round">59</tspan><tspan x="5" y="16">59</tspan></text></g><g class="highcharts-label highcharts-data-label highcharts-data-label-color-0"><text x="5" y="16" font-size="11" font-weight="bold" color="#000" transform="translate(137 40) translate(133 175)"><tspan x="5" y="16" fill="#fff" stroke="#fff" stroke-width="2" class="highcharts-text-outline" stroke-linejoin="round">60</tspan><tspan x="5" y="16">60</tspan></text></g><g class="highcharts-label highcharts-data-label highcharts-data-label-color-0"><text x="5" y="16" font-size="11" font-weight="bold" color="#000" transform="translate(137 40) translate(329 231)"><tspan x="5" y="16" fill="#fff" stroke="#fff" stroke-width="2" class="highcharts-text-outline" stroke-linejoin="round">148.9</tspan><tspan x="5" y="16">148.9</tspan></text></g><g class="highcharts-label highcharts-data-label highcharts-data-label-color-0"><text x="5" y="16" font-size="11" font-weight="bold" color="#000" transform="translate(137 40) translate(474 288)"><tspan x="5" y="16" fill="#fff" stroke="#fff" stroke-width="2" class="highcharts-text-outline" stroke-linejoin="round">214.3</tspan><tspan x="5" y="16">214.3</tspan></text></g><g class="highcharts-label highcharts-data-label highcharts-data-label-color-0"><text x="5" y="16" font-size="11" font-weight="bold" color="#000" transform="translate(137 40) translate(228 401)"><tspan x="5" y="16" fill="#fff" stroke="#fff" stroke-width="2" class="highcharts-text-outline" stroke-linejoin="round">103</tspan><tspan x="5" y="16">103</tspan></text></g><g class="highcharts-label highcharts-data-label highcharts-data-label-color-0"><text x="5" y="16" font-size="11" font-weight="bold" color="#000" transform="translate(137 40) translate(133 457)"><tspan x="5" y="16" fill="#fff" stroke="#fff" stroke-width="2" class="highcharts-text-outline" stroke-linejoin="round">60</tspan><tspan x="5" y="16">60</tspan></text></g></g><g class="highcharts-data-labels highcharts-series-1 highcharts-column-series highcharts-color-1"><g class="highcharts-label highcharts-data-label highcharts-data-label-color-1"><text x="5" y="16" font-size="11" font-weight="bold" color="#000" transform="translate(137 40) translate(119 17)"><tspan x="5" y="16" fill="#fff" stroke="#fff" stroke-width="2" class="highcharts-text-outline" stroke-linejoin="round">53.9</tspan><tspan x="5" y="16">53.9</tspan></text></g><g class="highcharts-label highcharts-data-label highcharts-data-label-color-1"><text x="5" y="16" font-size="11" font-weight="bold" color="#000" transform="translate(137 40) translate(68 73)"><tspan x="5" y="16" fill="#fff" stroke="#fff" stroke-width="2" class="highcharts-text-outline" stroke-linejoin="round">30.88</tspan><tspan x="5" y="16">30.88</tspan></text></g><g class="highcharts-label highcharts-data-label highcharts-data-label-color-1"><text x="5" y="16" font-size="11" font-weight="bold" color="#000" transform="translate(137 40) translate(55 130)"><tspan x="5" y="16" fill="#fff" stroke="#fff" stroke-width="2" class="highcharts-text-outline" stroke-linejoin="round">25</tspan><tspan x="5" y="16">25</tspan></text></g><g class="highcharts-label highcharts-data-label highcharts-data-label-color-1"><text x="5" y="16" font-size="11" font-weight="bold" color="#000" transform="translate(137 40) translate(120 243)"><tspan x="5" y="16" fill="#fff" stroke="#fff" stroke-width="2" class="highcharts-text-outline" stroke-linejoin="round">54.2</tspan><tspan x="5" y="16">54.2</tspan></text></g><g class="highcharts-label highcharts-data-label highcharts-data-label-color-1"><text x="5" y="16" font-size="11" font-weight="bold" color="#000" transform="translate(137 40) translate(253 299)"><tspan x="5" y="16" fill="#fff" stroke="#fff" stroke-width="2" class="highcharts-text-outline" stroke-linejoin="round">114.6</tspan><tspan x="5" y="16">114.6</tspan></text></g><g class="highcharts-label highcharts-data-label highcharts-data-label-color-1"><text x="5" y="16" font-size="11" font-weight="bold" color="#000" transform="translate(137 40) translate(133 356)"><tspan x="5" y="16" fill="#fff" stroke="#fff" stroke-width="2" class="highcharts-text-outline" stroke-linejoin="round">60</tspan><tspan x="5" y="16">60</tspan></text></g><g class="highcharts-label highcharts-data-label highcharts-data-label-color-1"><text x="5" y="16" font-size="11" font-weight="bold" color="#000" transform="translate(137 40) translate(116 412)"><tspan x="5" y="16" fill="#fff" stroke="#fff" stroke-width="2" class="highcharts-text-outline" stroke-linejoin="round">52.3</tspan><tspan x="5" y="16">52.3</tspan></text></g><g class="highcharts-label highcharts-data-label highcharts-data-label-color-1"><text x="5" y="16" font-size="11" font-weight="bold" color="#000" transform="translate(137 40) translate(133 525)"><tspan x="5" y="16" fill="#fff" stroke="#fff" stroke-width="2" class="highcharts-text-outline" stroke-linejoin="round">60</tspan><tspan x="5" y="16">60</tspan></text></g></g><g class="highcharts-data-labels highcharts-series-2 highcharts-column-series highcharts-color-2"><g class="highcharts-label highcharts-data-label highcharts-data-label-color-2"><text x="5" y="16" font-size="11" font-weight="bold" color="#000" transform="translate(137 40) translate(65 28)"><tspan x="5" y="16" fill="#fff" stroke="#fff" stroke-width="2" class="highcharts-text-outline" stroke-linejoin="round">29.3</tspan><tspan x="5" y="16">29.3</tspan></text></g><g class="highcharts-label highcharts-data-label highcharts-data-label-color-2"><text x="5" y="16" font-size="11" font-weight="bold" color="#000" transform="translate(137 40) translate(87 198)"><tspan x="5" y="16" fill="#fff" stroke="#fff" stroke-width="2" class="highcharts-text-outline" stroke-linejoin="round">39.3</tspan><tspan x="5" y="16">39.3</tspan></text></g><g class="highcharts-label highcharts-data-label highcharts-data-label-color-2"><text x="5" y="16" font-size="11" font-weight="bold" color="#000" transform="translate(137 40) translate(62 254)"><tspan x="5" y="16" fill="#fff" stroke="#fff" stroke-width="2" class="highcharts-text-outline" stroke-linejoin="round">27.9</tspan><tspan x="5" y="16">27.9</tspan></text></g><g class="highcharts-label highcharts-data-label highcharts-data-label-color-2"><text x="5" y="16" font-size="11" font-weight="bold" color="#000" transform="translate(137 40) translate(116 311)"><tspan x="5" y="16" fill="#fff" stroke="#fff" stroke-width="2" class="highcharts-text-outline" stroke-linejoin="round">52.6</tspan><tspan x="5" y="16">52.6</tspan></text></g><g class="highcharts-label highcharts-data-label highcharts-data-label-color-2"><text x="5" y="16" font-size="11" font-weight="bold" color="#000" transform="translate(137 40) translate(60 424)"><tspan x="5" y="16" fill="#fff" stroke="#fff" stroke-width="2" class="highcharts-text-outline" stroke-linejoin="round">27.1</tspan><tspan x="5" y="16">27.1</tspan></text></g><g class="highcharts-label highcharts-data-label highcharts-data-label-color-2"><text x="5" y="16" font-size="11" font-weight="bold" color="#000" transform="translate(137 40) translate(133 480)"><tspan x="5" y="16" fill="#fff" stroke="#fff" stroke-width="2" class="highcharts-text-outline" stroke-linejoin="round">60</tspan><tspan x="5" y="16">60</tspan></text></g></g><g class="highcharts-legend" transform="translate(198 662)"><rect width="303" height="29" fill="none" class="highcharts-legend-box" rx="0" ry="0"/><g><g><g class="highcharts-legend-item highcharts-column-series highcharts-color-0 highcharts-series-0" transform="translate(8 3)"><text x="21" y="15" fill="#333" color="#333" font-size="12" font-weight="bold" cursor="pointer"><tspan>2014 iMac</tspan></text><rect width="12" height="12" x="2" y="4" fill="#D14648" rx="6" ry="6" class="highcharts-point"/></g><g class="highcharts-legend-item highcharts-column-series highcharts-color-1 highcharts-series-1" transform="translate(112.25 3)"><text x="21" y="15" fill="#333" color="#333" font-size="12" font-weight="bold" cursor="pointer"><tspan>2016 MBP</tspan></text><rect width="12" height="12" x="2" y="4" fill="#323232" rx="6" ry="6" class="highcharts-point"/></g><g class="highcharts-legend-item highcharts-column-series highcharts-color-2 highcharts-series-2" transform="translate(214.078 3)"><text x="21" y="15" fill="#333" color="#333" font-size="12" font-weight="bold" cursor="pointer"><tspan>2013 MBP</tspan></text><rect width="12" height="12" x="2" y="4" fill="#9e9e9e" rx="6" ry="6" class="highcharts-point"/></g></g></g></g><g fill="#666" class="highcharts-axis-labels highcharts-xaxis-labels" text-anchor="end" color="#666" cursor="default" font-size="11"><text x="122" y="72"><tspan>Dirt Rally</tspan></text><text x="122" y="129"><tspan>Grid 2</tspan></text><text x="122" y="185"><tspan>F1 2017</tspan></text><text x="122" y="242"><tspan>Sonic All-Star Racing</tspan></text><text x="122" y="298">Distance</text><text x="122" y="355"><tspan>AudioSurf 2</tspan></text><text x="122" y="411"><tspan>Asphalt 6</tspan></text><text x="122" y="468"><tspan>Road Redemption</tspan></text><text x="122" y="524"><tspan>Race the Sun</tspan></text><text x="122" y="581"><tspan>Flatout 2</tspan></text></g><g fill="#666" class="highcharts-axis-labels highcharts-yaxis-labels" text-anchor="middle" color="#666" cursor="default" font-size="11"><text x="137" y="624">0</text><text x="192.3" y="624">25</text><text x="247.6" y="624">50</text><text x="302.9" y="624">75</text><text x="358.2" y="624">100</text><text x="413.5" y="624">125</text><text x="468.8" y="624">150</text><text x="524.1" y="624">175</text><text x="579.4" y="624">200</text><text x="634.7" y="624">225</text><text x="679.547" y="624">250</text></g></svg>